<svg width="102" height="112" viewBox="0 0 102 112" fill="none" xmlns="http://www.w3.org/2000/svg">
<path d="M97.5692 80C101.396 82.2091 102.748 87.1468 100.017 90.6196C94.1078 98.1328 86.3431 104.045 77.4303 107.737C66.0411 112.455 53.4136 113.282 41.5061 110.092C29.5987 106.901 19.0767 99.8707 11.5722 90.0906C4.0677 80.3106 1.12663e-06 68.3275 0 56C-1.12663e-06 43.6725 4.06769 31.6894 11.5722 21.9094C19.0767 12.1293 29.5987 5.09875 41.5061 1.90816C53.4136 -1.28244 66.0411 -0.454792 77.4303 4.26274C86.3431 7.95457 94.1077 13.8672 100.017 21.3804C102.748 24.8532 101.396 29.7909 97.5692 32L87.1769 38C83.3506 40.2091 78.5178 38.7817 75.3198 35.7331C72.8376 33.367 69.9253 31.4611 66.7151 30.1314C61.0206 27.7726 54.7068 27.3588 48.7531 28.9541C42.7993 30.5494 37.5384 34.0646 33.7861 38.9547C30.0338 43.8447 28 49.8362 28 56C28 62.1638 30.0338 68.1553 33.7861 73.0453C37.5384 77.9354 42.7993 81.4506 48.7531 83.0459C54.7068 84.6412 61.0206 84.2274 66.7151 81.8686C69.9253 80.5389 72.8376 78.633 75.3198 76.2669C78.5178 73.2183 83.3506 71.7909 87.1769 74L97.5692 80Z" fill="#3C69AC"/>
</svg>
