<svg width="112" height="120" viewBox="0 0 112 120" fill="none" xmlns="http://www.w3.org/2000/svg">
<path d="M55.3328 0.363527C50.7146 0.386183 46.3043 0.802034 42.4237 1.52703C30.992 3.65937 28.9164 8.12255 28.9164 16.3534V27.2239H55.9311V30.8473H28.9164H18.778C10.9268 30.8473 4.0521 35.8298 1.90177 45.3081C-0.578614 56.1724 -0.688633 62.9519 1.90177 74.2959C3.82206 82.74 8.40799 88.7566 16.2592 88.7566H25.5475V75.7254C25.5475 66.3111 33.2623 58.0069 42.4237 58.0069H69.4069C76.918 58.0069 82.9142 51.4772 82.9142 43.5129V16.3534C82.9142 8.62365 76.738 2.8171 69.4069 1.52703C64.7662 0.711408 59.951 0.34087 55.3328 0.363527ZM40.7235 9.10643C43.5139 9.10643 45.7927 11.5517 45.7927 14.5583C45.7927 17.5542 43.5139 19.9769 40.7235 19.9769C37.9231 19.9769 35.6543 17.5542 35.6543 14.5583C35.6543 11.5517 37.9231 9.10643 40.7235 9.10643Z" fill="url(#paint0_linear_403_179)"/>
<path d="M86.2847 30.8474V43.513C86.2847 53.3324 78.3998 61.5972 69.4084 61.5972H42.4253C35.0342 61.5972 28.918 68.2761 28.918 76.0911V103.251C28.918 110.98 35.2842 115.527 42.4253 117.745C50.9766 120.399 59.1769 120.879 69.4084 117.745C76.2095 115.666 82.9158 111.481 82.9158 103.251V92.3802H55.9326V88.7567H82.9158H96.4231C104.274 88.7567 107.2 82.9747 109.93 74.296C112.751 65.3615 112.631 56.7695 109.93 45.3081C107.99 37.0559 104.284 30.8474 96.4231 30.8474H86.2847ZM71.1087 99.6272C73.9091 99.6272 76.1779 102.05 76.1779 105.046C76.1778 108.052 73.9091 110.498 71.1087 110.498C68.3182 110.498 66.0395 108.052 66.0395 105.046C66.0395 102.05 68.3182 99.6272 71.1087 99.6272Z" fill="url(#paint1_linear_403_179)"/>
<defs>
<linearGradient id="paint0_linear_403_179" x1="8.8172e-08" y1="0.362549" x2="65.1123" y2="52.9141" gradientUnits="userSpaceOnUse">
<stop stop-color="#04A3FB"/>
<stop offset="1" stop-color="#799FFF"/>
</linearGradient>
<linearGradient id="paint1_linear_403_179" x1="70.4595" y1="104.132" x2="46.4754" y2="72.2998" gradientUnits="userSpaceOnUse">
<stop stop-color="#FFB800"/>
<stop offset="1" stop-color="#FF9D2B"/>
</linearGradient>
</defs>
</svg>
