<svg width="97" height="113" viewBox="0 0 97 113" fill="none" xmlns="http://www.w3.org/2000/svg">
<path fill-rule="evenodd" clip-rule="evenodd" d="M21.2132 28.2844C17.308 32.1896 17.308 38.5213 21.2132 42.4265L38.8909 60.1042C40.8435 62.0568 40.8435 65.2227 38.8909 67.1753V67.1753C36.9383 69.1279 33.7725 69.1279 31.8198 67.1753L0.000147836 35.3556C8.0583e-05 35.3555 8.01294e-05 35.3554 0.000147382 35.3554L0.000257691 35.3553C0.000264022 35.3553 0.000264022 35.3552 0.000257691 35.3552V35.3552C0.000251359 35.3552 0.000251359 35.3552 0.000257691 35.3552L31.82 3.53542C33.7727 1.5828 36.9385 1.5828 38.8911 3.53542V3.53542C40.8437 5.48804 40.8437 8.65387 38.8911 10.6065L21.2132 28.2844Z" fill="#1FDE00"/>
<path fill-rule="evenodd" clip-rule="evenodd" d="M91.3018 43.6603V43.6603C94.0632 38.8773 92.4244 32.7614 87.6415 30V30L57.3306 12.5C54.9392 11.1193 51.8812 11.9387 50.5005 14.3301V14.3301C49.1198 16.7216 49.9392 19.7795 52.3306 21.1603L73.9812 33.6603C78.7642 36.4217 80.4029 42.5376 77.6415 47.3205L65.1415 68.9711C63.7608 71.3626 64.5802 74.4206 66.9716 75.8013V75.8013C69.3631 77.182 72.421 76.3626 73.8018 73.9711L91.3018 43.6603Z" fill="#1FDE00"/>
<circle cx="69" cy="88" r="25" fill="#744CF3"/>
<path fill-rule="evenodd" clip-rule="evenodd" d="M57.2472 62.0563C47.7029 66.0644 41 75.4994 41 86.5C41 89.4717 41.4892 92.3292 42.3913 94.9962C42.2612 94.9987 42.1307 95 42 95C30.9543 95 22 86.0457 22 75C22 63.9543 30.9543 55 42 55C48.1092 55 53.5786 57.7391 57.2472 62.0563Z" fill="#744CF3"/>
</svg>
