<svg width="113" height="24" viewBox="0 0 113 24" fill="none" xmlns="http://www.w3.org/2000/svg">
<path d="M38 2C38 0.89543 38.8954 0 40 0L54.8 0C55.4627 0 56 0.537258 56 1.2C56 3.85097 53.851 6 51.2 6L40 6C38.8954 6 38 5.10457 38 4V2Z" fill="#FFCB46"/>
<path d="M38 11C38 9.89543 38.8954 9 40 9H47C48.6569 9 50 10.3431 50 12C50 13.6569 48.6569 15 47 15H40C38.8954 15 38 14.1046 38 13V11Z" fill="#FFCB46"/>
<path d="M38 20C38 18.8954 38.8954 18 40 18H51.2C53.851 18 56 20.149 56 22.8C56 23.4627 55.4627 24 54.8 24H40C38.8954 24 38 23.1046 38 22V20Z" fill="#FFCB46"/>
<path d="M38 2C38 0.89543 38.8954 0 40 0L42 0C43.1046 0 44 0.895431 44 2V22C44 23.1046 43.1046 24 42 24H40C38.8954 24 38 23.1046 38 22V2Z" fill="#FFCB46"/>
<path d="M95 2C95 0.89543 95.8954 0 97 0L111.8 0C112.463 0 113 0.537258 113 1.2C113 3.85097 110.851 6 108.2 6L97 6C95.8954 6 95 5.10457 95 4V2Z" fill="#FFCB46"/>
<path d="M95 11C95 9.89543 95.8954 9 97 9H104C105.657 9 107 10.3431 107 12C107 13.6569 105.657 15 104 15H97C95.8954 15 95 14.1046 95 13V11Z" fill="#FFCB46"/>
<path d="M95 20C95 18.8954 95.8954 18 97 18H108.2C110.851 18 113 20.149 113 22.8C113 23.4627 112.463 24 111.8 24H97C95.8954 24 95 23.1046 95 22V20Z" fill="#FFCB46"/>
<path d="M95 2C95 0.89543 95.8954 0 97 0L99 0C100.105 0 101 0.895431 101 2V22C101 23.1046 100.105 24 99 24H97C95.8954 24 95 23.1046 95 22V2Z" fill="#FFCB46"/>
<path d="M0 2C0 0.89543 0.895431 0 2 0L13.2 0C15.851 0 18 2.14903 18 4.8C18 5.46274 17.4627 6 16.8 6L2 6C0.89543 6 0 5.10457 0 4L0 2Z" fill="#FFCB46"/>
<path d="M0 11C0 9.89543 0.895431 9 2 9L16 9C17.1046 9 18 9.89543 18 11V13C18 14.1046 17.1046 15 16 15H2C0.89543 15 0 14.1046 0 13L0 11Z" fill="#FFCB46"/>
<path d="M0 20C0 18.8954 0.895431 18 2 18H16.8C17.4627 18 18 18.5373 18 19.2C18 21.851 15.851 24 13.2 24H2C0.89543 24 0 23.1046 0 22L0 20Z" fill="#FFCB46"/>
<path d="M0 2C0 0.89543 0.895431 0 2 0L4 0C5.10457 0 6 0.895431 6 2L6 22C6 23.1046 5.10457 24 4 24H2C0.89543 24 0 23.1046 0 22L0 2Z" fill="#FFCB46"/>
<path d="M12 1.2C12 0.537259 12.5373 0 13.2 0C15.851 0 18 2.14903 18 4.8V19.2C18 21.851 15.851 24 13.2 24C12.5373 24 12 23.4627 12 22.8L12 1.2Z" fill="#FFCB46"/>
<rect x="6" y="6" width="6" height="3" fill="#FFCB46"/>
<rect x="6" y="6" width="6" height="3" rx="1" fill="#744CF3"/>
<rect x="6" y="15" width="6" height="3" fill="#FFCB46"/>
<rect x="6" y="15" width="6" height="3" rx="1" fill="#744CF3"/>
<path d="M19 4.8C19 2.14903 21.149 0 23.8 0C24.4627 0 25 0.537258 25 1.2L25 22C25 23.1046 24.1046 24 23 24H21C19.8954 24 19 23.1046 19 22L19 4.8Z" fill="#E5DDFF"/>
<path d="M31 1.2C31 0.537259 31.5373 0 32.2 0C34.851 0 37 2.14903 37 4.8V22C37 23.1046 36.1046 24 35 24H33C31.8954 24 31 23.1046 31 22V1.2Z" fill="#E5DDFF"/>
<path d="M19 4.8C19 2.14903 21.149 0 23.8 0L32.2 0C34.851 0 37 2.14903 37 4.8C37 5.46274 36.4627 6 35.8 6L20.2 6C19.5373 6 19 5.46274 19 4.8Z" fill="#E5DDFF"/>
<path fill-rule="evenodd" clip-rule="evenodd" d="M21 6C19.8954 6 19 6.89543 19 8V13C19 14.1046 19.8954 15 21 15H35C36.1046 15 37 14.1046 37 13V8C37 6.89543 36.1046 6 35 6H30C30.5523 6 31 6.44772 31 7V8C31 8.55229 30.5523 9 30 9H26C25.4477 9 25 8.55228 25 8V7C25 6.44772 25.4477 6 26 6H21Z" fill="#E5DDFF"/>
<path d="M76 4.8C76 2.14903 78.149 0 80.8 0C81.4627 0 82 0.537258 82 1.2V22C82 23.1046 81.1046 24 80 24H78C76.8954 24 76 23.1046 76 22V4.8Z" fill="#E5DDFF"/>
<path d="M88 1.2C88 0.537259 88.5373 0 89.2 0C91.851 0 94 2.14903 94 4.8V22C94 23.1046 93.1046 24 92 24H90C88.8954 24 88 23.1046 88 22V1.2Z" fill="#E5DDFF"/>
<path d="M76 4.8C76 2.14903 78.149 0 80.8 0L89.2 0C91.851 0 94 2.14903 94 4.8C94 5.46274 93.4627 6 92.8 6L77.2 6C76.5373 6 76 5.46274 76 4.8Z" fill="#E5DDFF"/>
<path fill-rule="evenodd" clip-rule="evenodd" d="M78 6C76.8954 6 76 6.89543 76 8V13C76 14.1046 76.8954 15 78 15H92C93.1046 15 94 14.1046 94 13V8C94 6.89543 93.1046 6 92 6H87C87.5523 6 88 6.44772 88 7V8C88 8.55228 87.5523 9 87 9H83C82.4477 9 82 8.55228 82 8V7C82 6.44772 82.4477 6 83 6H78Z" fill="#E5DDFF"/>
<path d="M0 2C0 0.89543 0.895431 0 2 0L13.2 0C15.851 0 18 2.14903 18 4.8C18 5.46274 17.4627 6 16.8 6L2 6C0.89543 6 0 5.10457 0 4L0 2Z" fill="#FFCB46"/>
<path d="M0 11C0 9.89543 0.895431 9 2 9L16 9C17.1046 9 18 9.89543 18 11V13C18 14.1046 17.1046 15 16 15H2C0.89543 15 0 14.1046 0 13L0 11Z" fill="#FFCB46"/>
<path d="M0 20C0 18.8954 0.895431 18 2 18H16.8C17.4627 18 18 18.5373 18 19.2C18 21.851 15.851 24 13.2 24H2C0.89543 24 0 23.1046 0 22L0 20Z" fill="#FFCB46"/>
<path d="M0 2C0 0.89543 0.895431 0 2 0L4 0C5.10457 0 6 0.895431 6 2L6 22C6 23.1046 5.10457 24 4 24H2C0.89543 24 0 23.1046 0 22L0 2Z" fill="#FFCB46"/>
<path d="M12 1.2C12 0.537259 12.5373 0 13.2 0C15.851 0 18 2.14903 18 4.8V19.2C18 21.851 15.851 24 13.2 24C12.5373 24 12 23.4627 12 22.8L12 1.2Z" fill="#FFCB46"/>
<rect x="6" y="6" width="6" height="3" fill="#FFCB46"/>
<rect x="6" y="6" width="6" height="3" rx="1" fill="#744CF3"/>
<rect x="6" y="15" width="6" height="3" fill="#FFCB46"/>
<rect x="6" y="15" width="6" height="3" rx="1" fill="#744CF3"/>
<path d="M57 2C57 0.89543 57.8954 0 59 0L70.2 0C72.851 0 75 2.14903 75 4.8C75 5.46274 74.4627 6 73.8 6L59 6C57.8954 6 57 5.10457 57 4V2Z" fill="#FFCB46"/>
<path d="M57 11C57 9.89543 57.8954 9 59 9L73 9C74.1046 9 75 9.89543 75 11V13C75 14.1046 74.1046 15 73 15H59C57.8954 15 57 14.1046 57 13V11Z" fill="#FFCB46"/>
<path d="M57 20C57 18.8954 57.8954 18 59 18H73.8C74.4627 18 75 18.5373 75 19.2C75 21.851 72.851 24 70.2 24H59C57.8954 24 57 23.1046 57 22V20Z" fill="#FFCB46"/>
<path d="M57 2C57 0.89543 57.8954 0 59 0L61 0C62.1046 0 63 0.895431 63 2V22C63 23.1046 62.1046 24 61 24H59C57.8954 24 57 23.1046 57 22V2Z" fill="#FFCB46"/>
<path d="M69 1.2C69 0.537259 69.5373 0 70.2 0C72.851 0 75 2.14903 75 4.8V19.2C75 21.851 72.851 24 70.2 24C69.5373 24 69 23.4627 69 22.8V1.2Z" fill="#FFCB46"/>
<rect x="63" y="6" width="6" height="3" fill="#FFCB46"/>
<rect x="63" y="6" width="6" height="3" rx="1" fill="#744CF3"/>
<rect x="63" y="15" width="6" height="3" fill="#FFCB46"/>
<rect x="63" y="15" width="6" height="3" rx="1" fill="#744CF3"/>
</svg>
